<?xml version="1.0" encoding="UTF-8"?>
<!DOCTYPE svg PUBLIC "-//W3C//DTD SVG 1.1//EN" "http://www.w3.org/Graphics/SVG/1.1/DTD/svg11.dtd">
<!-- Creator: CorelDRAW 2019 (64 Bit) -->
<svg xmlns="http://www.w3.org/2000/svg" xml:space="preserve" width="277.812mm" height="198.665mm" version="1.1" style="shape-rendering:geometricPrecision; text-rendering:geometricPrecision; image-rendering:optimizeQuality; fill-rule:evenodd; clip-rule:evenodd"
viewBox="0 0 27781.2 19866.5"
 xmlns:xlink="http://www.w3.org/1999/xlink"
 data-name="Layer 1">
 <defs>
  <style type="text/css">
   <![CDATA[
    .fil11 {fill:black}
    .fil4 {fill:#262626}
    .fil1 {fill:#3F3D56}
    .fil8 {fill:#DAAE12}
    .fil5 {fill:#E6E8EC}
    .fil3 {fill:#F2C215}
    .fil13 {fill:#F2F2F2}
    .fil9 {fill:#FBBEBE}
    .fil12 {fill:#FF6F61}
    .fil6 {fill:white}
    .fil14 {fill:black;fill-opacity:0.031373}
    .fil10 {fill:black;fill-opacity:0.050980}
    .fil2 {fill:black;fill-opacity:0.101961}
    .fil0 {fill:#F2C215;fill-opacity:0.101961}
    .fil7 {fill:#F2C215;fill-opacity:0.200000}
   ]]>
  </style>
 </defs>
 <g id="Camada_x0020_1">
  <metadata id="CorelCorpID_0Corel-Layer"/>
  <path class="fil0" d="M27781.22 18993.51c0,-482.21 -6219.04,-873.12 -13890.62,-873.12 -7671.58,0 -13890.62,390.91 -13890.62,873.12 0,482.21 6219.04,873.12 13890.62,873.12 7671.58,0 13890.62,-390.91 13890.62,-873.12z"/>
  <path class="fil1" d="M25602.38 18346.87c0,0.78 0,1.97 0,2.81 0,68.01 -7.17,136.01 -21.15,202.46 -2.65,12.7 -5.56,26.46 -8.47,37.31 -75.14,301.36 -287.07,521.76 -540.01,535.78 -8.47,0 -16.93,0 -26.46,0 -267.49,0 -493.71,-230.72 -568.33,-548.48 -2.12,-8.47 -3.97,-16.93 -5.82,-26.46 -14.02,-66.45 -21.19,-134.45 -21.19,-202.46 0,-0.84 0,-2.03 0,-2.87 0,-430.48 266.44,-779.2 595.31,-779.2 328.87,0 596.12,351.16 596.12,781.11z"/>
  <path class="fil2" d="M25602.38 18346.87c0,0.78 0,1.97 0,2.81 0,68.01 -7.17,136.01 -21.15,202.46 -2.65,12.7 -5.56,26.46 -8.47,37.31 -9,0 -17.73,0 -26.46,0 -65.29,-3.39 -130.92,-12.41 -194.77,-26.45 -56.53,17.47 -114.86,30.82 -173.48,39.67 -45.01,6.74 -90.79,11.04 -136.13,12.67l-46.04 0c0.1,0.07 -0.05,0.07 -0.05,0.07 -54.42,0 -108.99,-3.6 -162.8,-10.79 -87.27,-11.58 -173.36,-33.03 -255.94,-63.52 -45.2,15.03 -91.41,27.39 -138.06,36.96 -2.12,-8.47 -3.97,-16.93 -5.82,-26.46 -14.03,-66.44 -21.2,-134.44 -21.2,-202.45 0,-0.84 0,-2.03 0,-2.87 0,-430.48 266.44,-779.2 595.31,-779.2 328.87,0 595.06,349.84 595.06,779.79z"/>
  <path class="fil3" d="M26872.38 16895.63c0,-0.38 0,-0.97 0,-1.41 0,-188.84 -44.56,-375.32 -129.72,-543.72l-700.09 217.75 614.63 -361.42c-208.58,-301.42 -543.31,-492.48 -909.04,-518.32 -28.61,-43.46 -60.47,-85.28 -94.44,-124.84l-1005.42 313 824.71 -484.72c-211.19,-161.86 -470.34,-249.92 -736.58,-249.92 -546.96,0 -1025.96,367.01 -1168.39,895.05l861.22 991.66 -934.28 -676.04c-320.34,226.72 -510.79,595.06 -510.79,987.62 0,668.26 541.94,1210.2 1210.2,1210.2 130.31,0 260.04,-21.13 383.55,-62.35 133.99,49.06 276.04,74.32 418.83,74.32 120.51,0 240.71,-17.98 355.87,-53.19 85.71,18.98 173.47,28.58 261.38,28.58 668.26,0 1210.05,-541.64 1210.2,-1209.9 0,-26.46 0,-52.92 -2.65,-79.38 33.7,-112.32 50.82,-229.51 50.82,-346.84 0,-1.92 0,-4.28 0,-6.2l-0.01 0.07z"/>
  <path class="fil2" d="M26851.48 17120.26c-197.35,-37.27 -399.34,-56.53 -600.55,-56.53 -173.7,0 -348.18,14.15 -519.52,42.05 -420.42,69.59 -850.11,222.51 -1261.27,110.6 -241.3,-65.62 -449.79,-217.49 -685.54,-301.63 -137.99,-47.96 -283.08,-72.7 -429.12,-72.7 -93.71,0 -187.27,10.31 -278.76,30.29 -61.77,147.82 -93.85,306.86 -93.85,467.24 0,668.56 542.18,1210.73 1210.73,1210.73 130.08,0 259.71,-21.14 382.98,-62.23 134.03,49.15 276.08,74.41 418.87,74.41 120.51,0 240.71,-17.98 355.87,-53.19 85.71,18.98 173.47,28.58 261.38,28.58 668.26,0 1210.05,-541.64 1210.2,-1209.9 0,-26.46 0,-52.92 -2.65,-79.38 12.74,-42.07 23.4,-85.28 31.28,-128.34l-0.05 0z"/>
  <path class="fil1" d="M18332.16 4549.91l151.61 0c33.45,-0.01 60.58,27.12 60.58,60.58l0.01 2128.31c-0.01,33.46 -27.14,60.59 -60.6,60.59l-151.6 0c-33.47,0 -60.6,-27.13 -60.6,-60.59l0.01 -2128.31c-0.01,-33.46 27.12,-60.59 60.58,-60.59l0.01 0.01z"/>
  <path class="fil1" d="M9240.81 2787.52l73.82 0c21.93,-0.01 39.7,17.76 39.7,39.68l-0.01 661.2c0.01,21.92 -17.76,39.69 -39.68,39.69l-73.83 -0.01c-21.91,0.01 -39.68,-17.76 -39.68,-39.68l0 -661.2c0,-21.92 17.77,-39.69 39.69,-39.69l-0.01 0.01z"/>
  <path class="fil1" d="M9240.28 4143.51l83.08 0c24.7,0 44.72,20.02 44.72,44.71l0 1199.62c0,24.69 -20.02,44.71 -44.71,44.71l-83.09 0.01c-24.68,-0.01 -44.7,-20.03 -44.7,-44.72l-0.01 -1199.62c0.01,-24.69 20.03,-44.71 44.72,-44.71l-0.01 0z"/>
  <path class="fil1" d="M9240.81 5883.41l79.11 0c23.53,-0.01 42.61,19.07 42.61,42.59l-0.01 1214.97c0.01,23.52 -19.07,42.6 -42.59,42.6l-79.12 0c-23.51,0 -42.59,-19.08 -42.59,-42.6l-0.01 -1214.97c0.01,-23.52 19.09,-42.6 42.61,-42.6l-0.01 0.01z"/>
  <path class="fil4" d="M10232.21 340.38l7242.17 0c521.42,0 944.29,422.87 944.29,944.3l0.01 16668.49c-0.01,521.42 -422.88,944.29 -944.31,944.29l-7242.16 0.01c-521.42,-0.01 -944.29,-422.88 -944.29,-944.31l-0.01 -16668.48c0.01,-521.43 422.88,-944.3 944.31,-944.3l-0.01 0z"/>
  <path class="fil5" d="M13039.7 894.42l1140.62 0c37.1,0.01 67.19,30.1 67.19,67.21l0.01 124.61c-0.01,37.11 -30.1,67.2 -67.21,67.2l-1140.61 0.01c-37.1,-0.01 -67.19,-30.1 -67.19,-67.21l-0.01 -124.61c0.01,-37.11 30.1,-67.2 67.21,-67.2l-0.01 -0.01z"/>
  <circle class="fil5" cx="14587.25" cy="1023.8" r="146.84"/>
  <path class="fil6" d="M17854.85 1548.74l0 16139.58c-0.1,400.36 -324.86,724.94 -725.23,724.94 0,0 0,0 0,0l-6552.66 0.02c0.01,-0.02 0.01,-0.02 0.01,-0.02 -400.37,0 -725.13,-324.58 -725.22,-724.95l0 -16139.58c0,-400.45 324.76,-725.21 725.22,-725.21l980.53 -0.01 0 125.94c0.6,329.43 267.77,596.23 597.15,596.38l3333.77 0c329.74,0 597.15,-267.41 597.15,-597.16l0.01 -125.16 1045.37 0c399.93,0.72 723.89,325.3 723.89,725.23 0,0 0,0 0,0l0.01 0z"/>
  <path class="fil7" d="M17912.27 8213.33l0 5488.25 -57.42 0 0 5.56 -8003.11 -0.01 0 -6705.07c51.33,-58.56 103.36,-119.32 156.1,-182.29 1123.95,-1342.23 2651.65,-1695.45 3834.08,-1732.49 810.15,-26.46 1616.6,141.02 2386.54,473.6 406.66,175.68 990.34,368.3 1626.39,387.35l0 2074.86c38.9,110.86 57.42,190.24 57.42,190.24z"/>
  <path class="fil7" d="M17912.27 8213.33l0 5488.25 -8060.53 0 0 -3595.16c287.07,-72.23 687.92,-350.04 1202.27,-1117.6 615.16,-918.37 1450.98,-1159.93 2097.88,-1185.33 443.18,-17.46 884.5,96.31 1305.72,324.11 473.87,255.85 1387.21,564.36 2081.21,-331.26 767.29,-990.34 1175.28,-173.57 1316.04,226.75 38.89,110.86 57.41,190.24 57.41,190.24z"/>
  <path class="fil8" d="M10980.18 12696.43l5767.92 0c175.31,-0.01 317.49,142.17 317.49,317.49l0.01 1375.84c-0.01,175.31 -142.19,317.49 -317.51,317.49l-5767.91 0.01c-175.31,-0.01 -317.49,-142.19 -317.49,-317.51l-0.01 -1375.82c0.01,-175.33 142.19,-317.51 317.51,-317.51l-0.01 0.01z"/>
  <path class="fil3" d="M3546.98 18089.96l506.41 -298.72c-68.29,-116.88 -156.25,-221.93 -259.07,-309.9l-955.37 298.26 748.77 -440.27c-179.07,-98.11 -380.4,-149.67 -584.71,-149.67 -672.06,0 -1217.08,545.02 -1217.08,1217.08 0,0 0,0.15 0,0.15 0,672.31 544.78,695.59 1217.08,695.59 672.3,0 1217.08,-23.28 1217.08,-695.59 0.01,-0.48 0.01,-1.22 0.01,-1.66 0,-169.5 -35.62,-337.23 -104.48,-491.96l-568.64 176.69z"/>
  <path class="fil2" d="M3675.83 18743.74c-53.75,-53.91 -114.25,-101.57 -179.37,-141.02 -92.08,-61.12 -187.06,-123.3 -295.54,-144.2 -95.25,-18.26 -193.41,-2.91 -291.04,-8.2 -168.44,-10.33 -327.06,-83.21 -444.73,-204.03 -69.06,-71.44 -123.56,-158.75 -206.64,-214.05 -89.69,-58.74 -203.46,-71.44 -309.83,-56.89 -30.66,4.61 -61.55,11.03 -91.57,18.86 -47.66,131.89 -71.98,271.4 -71.98,411.81 0,0.3 0,0.89 0,1.19 0,672.31 544.78,695.59 1217.08,695.59 326.23,0 622.3,-5.56 840.85,-88.11l-36.51 -68.26c-34.76,-72.72 -78.81,-141.02 -130.68,-202.67l-0.04 -0.02z"/>
  <path class="fil4" d="M6038.83 15406.55c-38.63,33.89 -68.46,76.82 -86.77,124.88 -45.24,141.29 81.23,279.93 93.4,427.83 9.53,117.48 -52.92,227.01 -88.37,339.73 -18.74,65.39 -28.23,133.32 -28.23,201.44 0,224.93 103.29,437.43 280.07,576.43 24.4,20.66 53.22,35.51 84.19,43.38 7.49,0.9 15.08,1.36 22.64,1.36 44.2,0 87.03,-15.47 121.03,-43.69 61.4,-44.64 108.33,-106.58 134.67,-177.78 21.85,-69.93 33.91,-143.02 35.23,-216.21l18.79 -283.1c19.58,-295.54 37.31,-600.34 -34.66,-890.59 -23.55,-95.25 -67.2,-314.06 -177.27,-327.29 -110.07,-13.23 -301.7,152.18 -374.72,223.61z"/>
  <path class="fil9" d="M7884.56 14190.53c-131.77,463.15 -228.19,939.53 -286.03,1417.04 -8.47,67.47 -17.2,138.38 -57.94,192.88 -81.23,109.27 -243.95,102.39 -378.88,84.67 -32.89,-1.9 -64.49,-10.99 -92.84,-26.67 -50.8,-34.4 -61.91,-103.19 -68,-164.31 -92.44,-900.98 -154.18,-1804.35 -185.23,-2710.11 -1.32,-34.66 1129.51,-37.84 1226.34,52.92 96.83,90.76 21.7,430.21 0,545.84 -35.45,205.84 -99.48,406.39 -157.42,607.74z"/>
  <path class="fil10" d="M7884.56 14190.53c-131.77,463.15 -228.19,939.53 -286.03,1417.04 -8.47,67.47 -17.2,138.38 -57.94,192.88 -81.23,109.27 -243.95,102.39 -378.88,84.67 -32.89,-1.9 -64.49,-10.99 -92.84,-26.67 -50.8,-34.4 -61.91,-103.19 -68,-164.31 -92.44,-900.98 -154.18,-1804.35 -185.23,-2710.11 -1.32,-34.66 1129.51,-37.84 1226.34,52.92 96.83,90.76 21.7,430.21 0,545.84 -35.45,205.84 -99.48,406.39 -157.42,607.74z"/>
  <path class="fil9" d="M5529.77 12855.18l457.99 1007.27c152.4,334.96 305.86,673.63 378.62,1034.26 28.86,150.39 48.21,303.62 55.87,456.44 3.93,47.8 6.03,96.09 6.03,144.17 0,83.56 -6.3,167.13 -18.27,249.64 -16.67,96.84 -47.36,191.03 -60.85,288.4 -52.92,388.14 166.95,753.27 317.5,1114.43 129.8,309.69 213.07,638.7 245.48,973.04 13.76,142.61 21.43,293.95 102.92,411.69 148.96,-44.71 294.48,-83.34 449.79,-65.88 27.78,-227.81 -116.15,-437.62 -169.07,-661.46 -97.1,-410.1 117.48,-841.11 44.45,-1256.24 -39.69,-224.9 -162.72,-436.56 -152.66,-664.63 18.79,-415.93 96.84,-836.08 17.46,-1243.54 -89.43,-460.64 -346.6,-879.48 -403.49,-1345.14 -43.66,-357.72 26.46,-753.27 -172.77,-1053.84 -435.16,-25.73 -885.22,231.18 -1099,611.39z"/>
  <path class="fil4" d="M7034.98 19180.83c-45.77,1.59 -99.22,0 -127.53,-36.25 -13.78,-21.06 -21.76,-45.49 -23.01,-70.65 -20.69,-155 -31.76,-312.98 -31.76,-469.69 0,-3.83 0,-7.66 0,-11.5 0,-58.74 2.65,-121.18 35.45,-169.6 24.09,-29.61 51.55,-56.29 81.76,-79.44 70.11,-64.82 121.18,-158.75 211.67,-188.65 20.72,-6.03 42.16,-9.09 63.71,-9.09 61.34,0 120.17,24.78 163.05,68.61 57.05,60.81 92.45,138.91 100.53,221.95 13.23,98.43 2.12,205.58 54.24,291.04 20.64,33.07 49.48,60.06 72.76,91.28 79.38,105.83 150.55,313 -13.23,355.86 -173.57,45.29 -407.46,0.31 -587.64,6.13z"/>
  <path class="fil11" d="M7432.12 6894.11c92.6,-178.86 37.31,-409.05 -94.99,-560.92 -132.3,-151.87 -325.7,-236.53 -523.08,-282.3 -264.58,-61.91 -548.22,-61.38 -801.42,35.98 -201.88,77.52 -375.71,211.67 -561.98,321.2 -328.97,193.57 -697.79,311.52 -1078.17,343.97 -423.33,35.72 -896.14,-19.84 -1223.43,249.77 -599.55,493.71 -182.03,1606.29 -740.83,2144.98 -150.81,145.26 -352.16,223.84 -524.93,342.11 -172.77,118.27 -327.29,307.45 -299.51,514.88 13.23,99.75 67.73,189.71 130.7,268.29 270.4,337.87 724.43,514.88 1153.85,462.23 429.42,-52.65 822.59,-328.35 1031.88,-707.76 52.92,-94.99 95.78,-198.97 179.12,-268.02 166.95,-137.85 411.96,-82.02 628.39,-88.64 481.28,-14.82 918.37,-427.3 960.44,-907.26 17.99,-205.05 -16.93,-443.71 130.44,-587.64 118.8,-116.42 304.54,-115.36 466.99,-151.08 298.45,-65.35 515.67,-281.25 651.93,-544.78 62.44,-121.18 56.09,-256.65 148.7,-357.19 98.67,-110.61 277.79,-57.95 365.9,-227.82z"/>
  <g id="_2514306213888">
   <path class="fil2" d="M3977.99 6835.91c175.14,-14.79 349.29,-48.19 517.82,-98.75 -47.63,6.61 -95.25,12.17 -143.14,16.14 -331.79,27.78 -694.8,0 -993.78,116.68 203.7,-20.85 417.22,-17.14 619.1,-34.07z"/>
   <path class="fil2" d="M3682.71 9842.37c-83.34,68.79 -127.26,173.04 -179.12,268.02 -160.22,288.97 -417.27,512.79 -725.45,631.59 23.55,-1.59 47.1,-3.7 70.64,-6.61 429.42,-52.92 822.59,-328.08 1031.88,-707.5 52.92,-94.99 95.51,-199.23 179.12,-268.02l14.29 -11.11c-145.3,-3.48 -284.47,5.25 -391.36,93.63z"/>
   <path class="fil2" d="M7317.29 6334.78c-132.29,-151.87 -327.03,-236.27 -523.08,-282.31 -264.58,-61.91 -548.22,-61.12 -801.69,36.25l-16.93 6.88c29,-1.53 58.3,-2.47 87.4,-2.47 119.98,0 239.97,14.08 356.57,41.87 196.06,46.04 391.05,130.44 523.08,282.58 132.03,152.14 187.59,382.06 94.99,560.92 -88.11,169.86 -267.23,116.95 -368.04,226.75 -92.6,100.28 -86.25,236.01 -148.7,357.19 -117.21,226.75 -294.75,417.78 -531.81,508.53 82.81,-19.58 171.71,-28.31 254.26,-46.3 298.45,-65.62 515.67,-281.25 651.93,-544.78 62.71,-121.18 56.36,-256.91 148.7,-357.19 101.07,-109.8 280.19,-57.15 368.04,-226.75 92.61,-178.31 37.31,-408.5 -94.72,-561.17z"/>
   <path class="fil2" d="M5868.96 8107.49c-162.45,35.45 -348.19,34.66 -466.99,150.81 -147.37,144.2 -112.45,382.85 -130.44,587.9 -31.49,358.51 -283.63,679.45 -609.86,825.24l24.08 0c481.28,-14.82 918.1,-427.57 960.17,-907.26 18.26,-205.32 -16.67,-443.97 130.7,-587.9 33.76,-32.21 73.56,-57.6 116.96,-74.61l-24.62 5.82z"/>
  </g>
  <path class="fil9" d="M7440.06 9302.09c-21.96,38.89 -67.2,56.89 -109.27,72.5 -435.5,160.34 -893.76,323.59 -1353.08,256.12 -17.2,-72.23 -34.13,-144.73 -51.06,-216.96 -24.52,-104.78 -49.22,-209.56 -74.09,-314.33 -11.64,-50.01 -23.55,-100.54 -33.07,-151.34l0 -0.01c-11.95,-58.49 -18.03,-118.4 -18.03,-178.2 0,-21.92 0.87,-43.96 2.39,-65.77 2.76,-29.5 8.14,-58.9 15.89,-87.53 13.57,-52.16 36.36,-101.63 67.22,-145.83 5.29,-7.14 10.85,-14.29 16.67,-21.17l-0.01 0.03c26.17,-31.51 57.94,-58.02 93.67,-78.06 78.05,-42.86 185.21,-61.12 216.69,-144.2 5.53,-19.7 8.35,-40.11 8.35,-60.57 0,-24.38 -4,-48.62 -11.78,-71.71 -26.46,-105.83 -74.35,-205.32 -103.98,-310.09 -37.57,-132.29 19.05,-124.09 146.84,-156.1 230.19,-57.94 470.96,-99.48 707.23,-52.92 -11.11,116.68 -21.96,236.27 7.41,350.04 29.37,113.77 107.95,221.72 220.93,253.21 16.67,4.76 34.4,7.67 52.92,11.64l-0.01 0c24.52,3.93 47.83,13.56 68,28.05 13.92,11.48 25,26.09 32.28,42.6 11.49,27.86 19.09,57.33 22.48,87.32 41.45,277.62 71.35,556.58 89.7,836.86l0 10.58c1.44,9.4 2.16,18.97 2.16,28.49 0,26.64 -5.62,53.02 -16.44,77.34l-0.01 0.01z"/>
  <path class="fil9" d="M5197.98 8846.21c-98.95,150.55 -132.29,333.64 -162.45,511.44l-192.09 1113.9c-26.46,152.4 -50.01,319.88 28.05,453.5 26.46,45.24 63.5,84.4 82.81,132.29 14.52,48.1 24.25,97.81 28.62,147.88 44.98,255.32 296.07,427.57 547.95,489.48 91.02,22.49 197.38,31.22 269.08,-29.37 79.38,-65.88 79.38,-191.29 32.54,-281.78 -46.84,-90.49 -132.29,-154.52 -215.11,-215.11l-274.37 -202.14 158.75 -1217.08c11.64,-88.37 52.92,-202.94 142.35,-193.15 81.49,8.73 144.2,127.53 216.69,89.16 22.67,-15.35 38.7,-38.84 44.7,-65.6 31.75,-99.75 23.02,-207.17 14.02,-311.68l-32.81 -377.3c-10.85,-122.5 20.64,-214.31 35.45,-329.41 17.2,-134.14 -72.23,-93.4 -182.56,-64.56 -211.95,56.11 -419.12,162.73 -541.62,349.53z"/>
  <path class="fil9" d="M8609.78 10675.54c-20.13,33.88 -50.01,60.99 -85.7,77.76 -146.16,82.44 -311.39,125.8 -479.24,125.8 -76.12,0 -152.13,-8.93 -226.11,-26.57 -55.04,-16.07 -111.32,-29.49 -167.79,-39.18 -90.49,-11.11 -182.56,6.88 -273.84,0 -185.21,-14.02 -347.93,-129.65 -476.25,-264.58 -77.26,-79.38 -147.37,-209.29 -75.41,-294.48 32.1,-32.8 76.1,-51.32 122.02,-51.32 11.9,0 23.79,1.25 35.42,3.71 55.97,12.47 110.1,32.65 160.56,59.8 177.09,81.99 366.65,134.45 560.75,154.53 132.29,13.76 300.57,-8.73 346.34,-134.41 22.23,-61.12 6.61,-128.85 -9,-192.09 -42.74,-173.21 -85.45,-346.51 -128.13,-519.9 -2.91,-15.12 -8.29,-29.71 -15.86,-43.13 -2.16,-3.62 -4.75,-7.01 -7.67,-10.06 -16.87,-14.05 -37.31,-23.23 -59.01,-26.46 -98.69,-24.34 -197.38,-63.76 -268.02,-136.53 -46.29,-51.55 -83.28,-111.08 -109.02,-175.41 -7.41,-16.14 -14.29,-32.54 -21.43,-48.95 -54.24,-126.47 -111.39,-256.12 -155.58,-388.94 -30.6,-89.54 -53.73,-182.27 -67.92,-275.97 -11.64,-81.23 -17.99,-118.53 26.46,-154.52 11.82,-8.96 24.52,-16.94 37.76,-23.78 20.37,-10.85 43.39,-21.7 67.73,-32.01l23.55 -9.79c72.11,-28.71 146.68,-52.7 222.44,-70.95 183.62,-42.6 379.68,46.3 505.62,186.8 125.94,140.5 191.29,324.38 233.1,508.26 41.81,183.88 63.24,372.27 115.62,553.24 20.37,70.91 45.77,140.76 63.24,211.67 18.69,84.05 32.34,169.94 40.04,255.83 24.86,219.28 49.63,438.55 74.33,657.8 3.41,15.35 5.13,31.11 5.13,46.84 0,26.3 -4.79,52.39 -14.12,76.97l-0.01 0.02z"/>
  <path class="fil9" d="M5893.04 10580.29c52.92,337.61 -99.22,669.66 -246.33,978.96 83.34,60.85 185.21,91.02 284.69,117.21 468.87,123.09 953.98,185.97 1439.08,185.97 201.09,0 403.56,-11.06 603.27,-32.48 16.4,-114.3 31.75,-235.48 -15.08,-340.78 -29.1,-65.35 -79.38,-118.53 -111.39,-182.56 -52.92,-105.83 -47.63,-228.86 -41.8,-346.34l47.59 -1000.69c-328.35,-151.34 -709.08,-9.53 -1070.24,10.85 -187.06,10.58 -376.5,-12.17 -560.92,20.9 -95.78,17.2 -396.88,64.56 -442.12,163.25 -45.24,98.69 97.11,318.29 113.25,425.71z"/>
  <path class="fil10" d="M5893.04 10580.29c52.92,337.61 -99.22,669.66 -246.33,978.96 83.34,60.85 185.21,91.02 284.69,117.21 468.87,123.09 953.98,185.97 1439.08,185.97 201.09,0 403.56,-11.06 603.27,-32.48 16.4,-114.3 31.75,-235.48 -15.08,-340.78 -29.1,-65.35 -79.38,-118.53 -111.39,-182.56 -52.92,-105.83 -47.63,-228.86 -41.8,-346.34l47.59 -1000.69c-328.35,-151.34 -709.08,-9.53 -1070.24,10.85 -187.06,10.58 -376.5,-12.17 -560.92,20.9 -95.78,17.2 -396.88,64.56 -442.12,163.25 -45.24,98.69 97.11,318.29 113.25,425.71z"/>
  <path class="fil12" d="M6762.99 11549.19c-355.86,-74.08 -705.64,-196.59 -1068.92,-205.05 -3.14,-0.33 -6.36,-0.5 -9.54,-0.5 -15.08,0 -29.96,3.62 -43.36,10.54 -17.71,14.67 -29.56,35.26 -33.33,57.95 -37.58,129.65 -71.19,260.27 -100.83,391.86 -98.43,437.36 -146.84,920.49 69.59,1313.13 -2.12,-127.53 78.05,-246.86 185.21,-317.5 107.16,-70.64 235.48,-99.22 362.48,-110.86 127,-11.64 262.73,-6.88 381,45.24 168.15,76.41 282.89,236.81 300.83,420.64l1250.16 40.48c4.17,1.24 8.51,1.87 12.85,1.87 25.27,0 45.77,-20.5 45.77,-45.77 0,-2.03 -0.13,-4.06 -0.4,-6.07 21.52,-192.51 33.35,-388.02 33.35,-582.29 0,-208.59 -13.08,-417.8 -38.6,-624.52 -13.76,-111.92 -15.61,-267.23 -141.55,-309.3 -150.28,-50.27 -387.88,8.47 -548.48,1.59 -220.02,-8.78 -440.69,-37.04 -656.4,-81.67l0.17 0.23z"/>
  <path class="fil12" d="M7897.79 9589.16l-3.97 555.63 -1264.71 42.07c-232.04,7.94 -465.93,15.88 -692.15,67.47 -65.09,14.82 -129.38,33.34 -193.41,51.59 -66.68,-244.21 -132.29,-500.06 -114.83,-749.04l0 0c4.82,-67.08 16.6,-133.79 34.99,-198.45 40.22,-139.7 115.62,-271.46 155.84,-409.58l-0.06 0.02c16.17,-53.65 25.2,-109.61 26.5,-165.66 -3,-56.02 -11.94,-111.68 -26.46,-165.87 -10.91,-41.82 -16.49,-85.07 -16.49,-128.32 0,-2.61 0.06,-5.4 0.06,-7.94l100.28 -30.96 -0.02 0.01c2.91,11.91 5.29,23.55 7.41,35.72 4.23,25.14 7.67,50.8 10.05,76.46l0 0c4.09,45.98 6.19,92.6 6.19,138.85 0,17.39 -0.38,35.16 -0.96,52.36 -3.44,127.53 -20.64,269.61 59,370.42 103.45,129.38 302.42,109.27 464.87,76.99l425.45 -84.93c134.41,-26.46 284.43,-64.03 354.54,-181.77 30,-57.1 45.83,-120.58 46.13,-185.1l0 -12.7c0.93,-21.55 1.47,-44.03 1.47,-65.8 0,-118.48 -14.63,-237.14 -43,-352.05 -10.32,-42.86 -23.02,-85.2 -37.31,-126.74l42.57 0.05c24.52,3.94 47.83,13.57 68,28.06 13.92,11.48 25,26.09 32.28,42.6l23.55 -9.79c93.71,382.96 249.13,750.28 458.31,1084.61 26.82,38.4 48.38,80.5 63.48,124.78 6.24,24.01 9.82,48.76 10.54,73.56 2.12,15.61 1.86,34.4 1.86,53.45z"/>
  <circle class="fil9" cx="6561.64" cy="7140.18" r="767.29"/>
  <path class="fil9" d="M5197.98 8846.21c-98.95,150.55 -132.29,333.64 -162.45,511.44l-192.09 1113.9c-26.46,152.4 -50.01,319.88 28.05,453.5 26.46,45.24 63.5,84.4 82.81,132.29 14.52,48.1 24.25,97.81 28.62,147.88 44.98,255.32 296.07,427.57 547.95,489.48 91.02,22.49 197.38,31.22 269.08,-29.37 79.38,-65.88 79.38,-191.29 32.54,-281.78 -46.84,-90.49 -132.29,-154.52 -215.11,-215.11l-274.37 -202.14 158.75 -1217.08c10.54,-87.56 -181.28,-1089.81 -303.78,-903.01z"/>
  <path class="fil9" d="M8325.88 8874.78c41.8,183.89 63.24,372.27 115.62,553.24 20.37,71.17 45.77,140.76 63.24,211.67 18.68,84.05 32.31,169.78 39.99,255.5l74.35 657.75c3.07,14.82 4.67,29.97 4.67,45.06 0,26.19 -4.74,52.22 -13.95,76.74 -20.21,33.82 -50.09,60.95 -85.72,77.79 -146.26,82.2 -311.79,125.58 -479.71,125.58 -75.89,0 -151.91,-8.96 -225.65,-26.41 -55,-16.3 -111.28,-29.6 -167.74,-39.09 -90.49,-11.38 -182.56,6.88 -273.84,0 -185.21,-14.02 -347.93,-129.38 -476.25,-263.26 -77.26,-79.38 -147.37,-209.55 -75.41,-294.75 32.06,-32.85 76.06,-51.37 121.98,-51.37 11.9,0 23.79,1.25 35.42,3.71 55.93,12.59 110.13,32.8 160.58,60.05 176.87,81.73 366.68,134.16 560.61,154.32 132.29,14.02 300.57,-8.47 346.34,-134.41 22.23,-61.12 6.61,-128.85 -9,-192.09l-128.06 -519.91c-5.24,-18.02 370.73,-883.74 412.53,-700.12z"/>
  <path class="fil11" d="M6086.71 7376.45c-34.13,-122.5 -82.02,-275.7 14.02,-358.78 34.53,-26.61 76.14,-42.56 119.61,-45.76 215.64,-26.46 438.68,100.54 645.05,32.81 147.48,-48.17 247.35,-185.84 247.35,-341.03 0,-127.9 -68.16,-246.25 -178.8,-310.38 -90.22,-52.92 -197.91,-63.24 -301.89,-72.5 -273.84,-25.14 -559.33,-48.42 -815.45,52.92 -256.12,101.34 -472.04,362.21 -419.13,632.35 24.61,128.85 104.25,239.71 185.21,342.37 62.18,78.05 311.68,449.79 411.96,444.5 141.29,-7.94 114.3,-296.86 92.07,-376.5z"/>
  <path class="fil2" d="M6933.91 6353.31c-15.2,-8.81 -31.22,-16.55 -47.59,-23.03 74.77,67.89 117.5,164.29 117.5,265.32 0,155.05 -99.76,292.51 -247.16,340.58 -206.38,67.73 -429.42,-59.27 -645.05,-32.81 -43.48,3.21 -85.09,19.16 -119.59,45.78 -96.04,83.08 -48.15,236.27 -14.02,358.78 22.23,79.38 49.21,368.56 -91.55,376.5l-2.41 -0.01c43.66,42.6 83.08,70.38 111.13,68.79 140.76,-7.94 113.77,-296.86 91.55,-376.5 -34.13,-122.5 -82.02,-275.7 14.02,-358.78 34.52,-26.61 76.13,-42.56 119.6,-45.76 215.64,-26.46 438.68,100.54 645.05,32.81 147.48,-48.17 247.35,-185.84 247.35,-341.03 0,-127.9 -68.16,-246.25 -178.8,-310.38l-0.03 -0.26z"/>
  <rect class="fil4" x="9577.89" y="15897.89" width="8625.42" height="2672.29"/>
  <polygon class="fil6" points="13520.18,16761.48 13520.18,17706.04 14261.01,17233.76 "/>
  <path class="fil13" d="M6905.6 902.89l-410.63 260.35 249.24 -453.23c-70.55,-56.35 -158.15,-87.57 -248.43,-88.61l-6.63 -0.03c-2.21,0 -4.73,0.06 -7.02,0.06 -26.16,0 -52.38,-2.17 -78.19,-6.39l-139.17 88.11 59.8 -108.48c-98.66,-34.32 -183.95,-99.28 -243.37,-185.22l-249.24 158.75 157.43 -286.01c-145.79,-174.89 -342.11,-282.05 -558.01,-282.05 -259.03,0 -489.74,153.99 -638.7,393.96 -86.46,141.51 -240.48,227.85 -406.36,227.85 -5.64,0 -11.4,-0.12 -16.98,-0.29l-14.06 -0.02c-286.01,0 -517.79,324.11 -517.79,724.16 0,400.05 231.78,724.16 517.79,724.16 62.9,-0.27 124.9,-15.82 180.47,-45.23 101.58,-49.45 213.31,-75.22 326.4,-75.22 103.26,0 205.61,21.49 300.13,63.01 83.7,37.48 174.67,56.92 266.43,56.92 91.76,0 182.73,-19.44 266.45,-56.87 93.71,-40.61 195.09,-61.69 297.29,-61.69 112.15,0 222.93,25.28 323.95,73.82 54.98,28.78 116.21,44.02 178.3,44.21 286.01,0 517.79,-324.38 517.79,-724.16 -0.02,-3.75 0.09,-7.9 0.09,-11.71 0,-149.9 -36.78,-297.79 -106.96,-430.2l-0.02 0.05z"/>
  <path class="fil14" d="M6131.43 1962.54c-46.94,-8.89 -94.63,-13.37 -142.41,-13.37 -103.21,0 -205.58,21 -300.49,61.5 -83.81,37.39 -174.64,56.79 -266.43,56.79 -91.79,0 -182.62,-19.4 -266.43,-56.75 -94.46,-41.42 -196.64,-62.84 -299.83,-62.84 -113.12,0 -225.06,25.8 -326.7,75.29 -55.6,29.28 -117.59,44.77 -180.48,44.96 -254,0 -465.4,-255.85 -509.32,-593.46 50.56,-37.07 93.82,-83.59 127.01,-136.81 148.96,-240.24 379.68,-394.23 638.7,-394.23 259.02,0 486.83,152.14 635,389.73 89.41,143.35 246.54,230.52 415.51,230.52 2.15,0 4.42,-0.06 6.52,-0.06l6.59 0.01c202.41,0 377.56,162.19 462.76,398.72z"/>
  <path class="fil13" d="M20954.98 6804.16l-204.79 129.91 124.35 -226.22c-35.21,-28.02 -78.85,-43.61 -123.84,-44.18l-3.42 -0.01c-1.34,0.02 -2.77,0.05 -4.14,0.05 -12.78,0 -25.56,-1 -38.19,-2.95l-70.65 44.44 29.9 -54.24c-49.18,-17.02 -91.78,-49.31 -121.46,-92.06l-124.35 79.38 79.38 -142.61c-66.88,-86.33 -169.18,-138.08 -278.36,-140.75 -129.12,0 -244.21,76.73 -317.5,196.59 -43.27,70.55 -120.16,113.64 -202.99,113.64 -2.88,0 -5.81,-0.06 -8.66,-0.15l-6.87 -0.02c-142.61,0 -258.23,161.93 -258.23,361.16 0,199.23 115.62,361.42 258.23,361.42 31.34,-0.11 62.25,-7.85 89.96,-22.47 50.76,-24.69 106.61,-37.61 163.1,-37.61 51.39,0 102.29,10.64 149.36,31.25 41.53,18.78 86.67,28.64 132.29,28.84 45.55,-0.12 90.63,-9.75 132.28,-28.05 46.87,-20.34 97.46,-30.82 148.55,-30.82 55.79,0 111.03,12.58 161.3,36.64 27.38,14.46 57.91,22.11 88.88,22.23 142.61,0 258.23,-161.93 258.23,-361.42 0.05,-2.98 0.11,-6.16 0.11,-9.18 0,-74.1 -18.05,-147.25 -52.47,-212.8l0 -0.01z"/>
  <path class="fil14" d="M20567.89 7332.79c-23.49,-4.47 -47.45,-6.78 -71.41,-6.78 -51.48,0 -102.5,10.55 -149.78,30.85 -41.62,18.53 -86.72,28.17 -132.3,28.17 -45.58,0 -90.68,-9.64 -132.29,-28.16 -47.14,-20.59 -98.14,-31.26 -149.63,-31.26 -56.37,0 -112.11,12.82 -162.83,37.35 -27.69,14.73 -58.59,22.57 -89.96,22.76 -126.74,0 -232.04,-127.79 -254,-296.07 25.26,-18.49 46.74,-41.66 63.22,-68.26 74.35,-119.86 189.44,-196.59 317.5,-196.59 128.06,0 242.89,75.94 317.5,194.2 44.43,71.89 122.97,115.67 207.49,115.67 1.37,0 2.83,-0.03 4.17,-0.03l3.19 -0.02c99.22,-0.79 186.8,80.17 229.13,198.17z"/>
  <path class="fil13" d="M21408.21 3430.45l328.88 208.76 -200.03 -363.27c56.59,-45.06 126.63,-70.01 198.94,-70.89l5.32 -0.02c1.84,-0.01 3.88,0.04 5.77,0.04 20.92,0 41.83,-1.7 62.46,-5.06l111.65 70.64 -47.89 -86.78c78.95,-27.69 147.25,-79.6 195.02,-148.19l199.76 126.47 -126.21 -229.13c116.68,-140.23 274.11,-225.95 447.15,-225.95 207.7,0 392.38,123.3 511.7,315.65 69.52,113.35 192.98,182.52 325.96,182.52 4.11,0 8.4,-0.09 12.46,-0.19l11.11 -0.02c229.13,0 414.87,259.82 414.87,580.23 0,320.41 -185.21,580.23 -414.87,580.23 -50.38,-0.22 -99.97,-12.69 -144.45,-36.23 -81.55,-39.73 -171.23,-60.45 -261.93,-60.45 -82.89,0 -164.98,17.29 -240.8,50.64 -67.08,29.93 -139.88,45.51 -213.38,45.51 -73.5,0 -146.3,-15.58 -213.36,-45.53 -75.22,-32.56 -156.47,-49.51 -238.45,-49.51 -89.73,0 -178.43,20.24 -259.24,59.04 -44.2,23 -93.32,35.22 -143.16,35.49 -229.13,0 -414.87,-259.82 -414.87,-580.23 -0.01,-1.62 -0.01,-3.42 -0.01,-5.04 0,-121.62 30.18,-241.62 87.57,-348.74l0.03 0.01z"/>
  <path class="fil14" d="M22028.13 4279.5c37.64,-7.15 76.13,-10.81 114.55,-10.81 82.82,0 164.97,16.82 241.06,49.41 67.07,29.96 139.87,45.54 213.37,45.54 73.5,0 146.3,-15.58 213.36,-45.53 75.75,-33.14 157.76,-50.39 240.51,-50.39 90.86,0 180.55,20.69 262.21,60.45 44.52,23.47 94.11,35.86 144.46,36.01 203.46,0 372.8,-205.05 408.25,-476.25 -40.74,-29.54 -75.45,-66.97 -101.84,-109.82 -119.33,-192.09 -304.27,-315.65 -511.7,-315.65 -207.43,0 -390.26,121.97 -509.59,312.21 -71.56,115.18 -197.64,185.26 -333.26,185.26 -1.63,0 -3.3,-0.05 -4.89,-0.05l-5.28 0c-162.46,0.27 -302.95,130.18 -371.21,319.62z"/>
 </g>
</svg>
