<svg width="513" height="428" viewBox="0 0 513 428" fill="none" xmlns="http://www.w3.org/2000/svg">
<g clip-path="url(#clip0)">
<path d="M23.8373 407.839C30.9531 421.028 46.0554 426.69 46.0554 426.69C46.0554 426.69 49.6207 410.968 42.5049 397.779C35.3891 384.59 20.2867 378.928 20.2867 378.928C20.2867 378.928 16.7214 394.65 23.8373 407.839Z" fill="#2F2E41"/>
<path d="M28.7283 403.5C41.5753 411.225 46.5231 426.568 46.5231 426.568C46.5231 426.568 30.6418 429.387 17.7948 421.662C4.94778 413.938 0 398.594 0 398.594C0 398.594 15.8813 395.775 28.7283 403.5Z" fill="#F2C215"/>
<path d="M316.76 20.547H236.604V21.6914H316.76V20.547Z" fill="#F2F2F2"/>
<path d="M295.003 21.4053H293.857V31.9912H295.003V21.4053Z" fill="#F2F2F2"/>
<path d="M260.078 21.4053H258.933V31.9912H260.078V21.4053Z" fill="#F2F2F2"/>
<path d="M357.41 75.4795H277.254V76.624H357.41V75.4795Z" fill="#F2F2F2"/>
<path d="M300.156 65.1797H299.011V75.7656H300.156V65.1797Z" fill="#F2F2F2"/>
<path d="M335.081 65.1797H333.936V75.7656H335.081V65.1797Z" fill="#F2F2F2"/>
<path d="M463.903 101.229H383.747V102.374H463.903V101.229Z" fill="#F2F2F2"/>
<path d="M406.649 90.9293H405.504V101.515H406.649V90.9293Z" fill="#F2F2F2"/>
<path d="M441.575 90.9293H440.43V101.515H441.575V90.9293Z" fill="#F2F2F2"/>
<path d="M455.888 366.737H375.731V367.881H455.888V366.737Z" fill="#F2F2F2"/>
<path d="M398.633 356.437H397.488V367.023H398.633V356.437Z" fill="#F2F2F2"/>
<path d="M433.559 356.437H432.414V367.023H433.559V356.437Z" fill="#F2F2F2"/>
<path d="M319.05 183.056H238.894V184.2H319.05V183.056Z" fill="#F2F2F2"/>
<path d="M261.795 172.756H260.65V183.342H261.795V172.756Z" fill="#F2F2F2"/>
<path d="M296.72 172.756H295.575V183.342H296.72V172.756Z" fill="#F2F2F2"/>
<path d="M344.242 320.96H264.086V322.104H344.242V320.96Z" fill="#F2F2F2"/>
<path d="M286.988 310.66H285.843V321.246H286.988V310.66Z" fill="#F2F2F2"/>
<path d="M321.913 310.66H320.768V321.246H321.913V310.66Z" fill="#F2F2F2"/>
<path d="M472.492 279.188H392.336V280.332H472.492V279.188Z" fill="#F2F2F2"/>
<path d="M415.237 268.888H414.092V279.474H415.237V268.888Z" fill="#F2F2F2"/>
<path d="M450.163 268.888H449.018V279.474H450.163V268.888Z" fill="#F2F2F2"/>
<path d="M207.295 401.8H71.7246V400.825H206.32V353.549H83.1217L77.1369 341.088L78.0163 340.666L83.7354 352.574H207.295V401.8Z" fill="#2F2E41"/>
<path d="M89.7683 425.682C95.4242 425.682 100.009 421.099 100.009 415.447C100.009 409.794 95.4242 405.212 89.7683 405.212C84.1124 405.212 79.5273 409.794 79.5273 415.447C79.5273 421.099 84.1124 425.682 89.7683 425.682Z" fill="#3F3D56"/>
<path d="M190.715 425.682C196.37 425.682 200.956 421.099 200.956 415.447C200.956 409.794 196.37 405.212 190.715 405.212C185.059 405.212 180.474 409.794 180.474 415.447C180.474 421.099 185.059 425.682 190.715 425.682Z" fill="#3F3D56"/>
<path d="M309.705 204.41C313.206 204.41 316.044 201.573 316.044 198.074C316.044 194.574 313.206 191.738 309.705 191.738C306.204 191.738 303.365 194.574 303.365 198.074C303.365 201.573 306.204 204.41 309.705 204.41Z" fill="#3F3D56"/>
<path d="M221.795 337.465H69.4133L36.4414 229.754H255.751L255.552 230.387L221.795 337.465ZM70.1348 336.49H221.08L254.422 230.728H37.7596L70.1348 336.49Z" fill="#2F2E41"/>
<path d="M209.901 331.86H76.0581L47.0977 236.333H239.725L239.55 236.896L209.901 331.86Z" fill="#F2F2F2"/>
<path d="M258.484 220.131L257.541 219.881L263.977 195.637H301.415V196.612H264.728L258.484 220.131Z" fill="#2F2E41"/>
<path d="M244.792 262.408H47.0967V263.383H244.792V262.408Z" fill="#2F2E41"/>
<path d="M233.471 298.32H58.0898V299.295H233.471V298.32Z" fill="#2F2E41"/>
<path d="M146.581 230.241H145.605V336.978H146.581V230.241Z" fill="#2F2E41"/>
<path d="M190.248 230.21L183.247 336.945L184.22 337.008L191.222 230.274L190.248 230.21Z" fill="#2F2E41"/>
<path d="M101.959 230.209L100.985 230.273L107.946 337.01L108.919 336.946L101.959 230.209Z" fill="#2F2E41"/>
<path d="M513 426.3H0V427.444H513V426.3Z" fill="#2F2E41"/>
<path d="M340.899 35.4063C340.899 35.4063 349.269 59.214 344.119 62.8768C338.968 66.5395 361.502 96.4517 361.502 96.4517L388.542 89.1263L373.734 64.0977C373.734 64.0977 371.803 39.069 371.803 35.4063C371.803 31.7436 340.899 35.4063 340.899 35.4063Z" fill="#A0616A"/>
<path opacity="0.1" d="M340.899 35.4063C340.899 35.4063 349.269 59.214 344.119 62.8768C338.968 66.5395 361.502 96.4517 361.502 96.4517L388.542 89.1263L373.734 64.0977C373.734 64.0977 371.803 39.069 371.803 35.4063C371.803 31.7436 340.899 35.4063 340.899 35.4063Z" fill="black"/>
<path d="M326.851 205.113C326.851 205.113 324.407 235.635 326.851 251.507C329.294 267.379 332.959 311.332 332.959 311.332C332.959 311.332 332.959 394.353 346.396 395.574C359.834 396.795 369.607 398.016 370.829 393.132C372.05 388.249 364.721 385.807 368.385 383.365C372.05 380.923 373.272 372.377 368.385 362.61C363.499 352.842 368.385 253.949 368.385 253.949L391.596 316.215C391.596 316.215 394.039 367.493 396.483 374.819C398.926 382.144 394.039 395.574 402.591 396.795C411.142 398.016 420.915 390.691 425.801 388.249C430.688 385.807 418.472 385.807 420.915 384.586C423.358 383.365 430.688 379.702 428.244 378.481C425.801 377.261 423.358 318.657 423.358 318.657C423.358 318.657 416.639 193.514 408.088 188.63C399.537 183.747 394.039 192.158 394.039 192.158L326.851 205.113Z" fill="#2F2E41"/>
<path d="M348.84 390.691V400.458C348.84 400.458 337.845 427.008 348.84 427.008C359.834 427.008 368.385 429.76 368.385 426.097V393.132L348.84 390.691Z" fill="#2F2E41"/>
<path d="M420.915 390.673V400.441C420.915 400.441 431.909 426.991 420.915 426.991C409.92 426.991 401.369 429.742 401.369 426.08V393.115L420.915 390.673Z" fill="#2F2E41"/>
<path d="M358.002 53.1095C370.146 53.1095 379.991 43.2704 379.991 31.1332C379.991 18.996 370.146 9.15681 358.002 9.15681C345.858 9.15681 336.013 18.996 336.013 31.1332C336.013 43.2704 345.858 53.1095 358.002 53.1095Z" fill="#A0616A"/>
<path d="M351.283 72.0336C351.283 72.0336 357.391 90.3472 367.164 86.6845L376.937 83.0217L394.04 200.229C394.04 200.229 380.602 219.763 361.056 207.554C341.51 195.345 351.283 72.0336 351.283 72.0336Z" fill="#F2C215"/>
<path d="M368.386 68.3709L373.883 56.7722C373.883 56.7722 406.256 72.0336 411.142 76.9172C416.029 81.8009 416.029 89.1263 416.029 89.1263L407.477 119.649C407.477 119.649 409.921 186.799 409.921 189.241C409.921 191.683 418.472 205.113 412.364 200.229C406.256 195.345 405.034 190.462 400.148 197.787C395.261 205.113 384.267 213.659 384.267 213.659L368.386 68.3709Z" fill="#3F3D56"/>
<path d="M411.142 156.276L407.477 190.462C407.477 190.462 385.488 209.996 390.375 211.217C395.261 212.438 397.704 207.554 397.704 207.554C397.704 207.554 406.256 216.101 411.142 211.217C416.028 206.333 428.245 159.939 428.245 159.939L411.142 156.276Z" fill="#A0616A"/>
<path d="M358.47 0.0743141C353.595 -0.0998508 348.378 -0.186004 344.268 2.4394C342.377 3.75697 340.719 5.37969 339.36 7.24115C335.357 12.2986 331.899 18.6621 333.386 24.9371L335.113 24.2639C335.113 25.9389 334.74 27.5929 334.022 29.1064C334.265 28.3996 335.079 29.5421 334.861 30.257L332.959 36.4945C336.086 35.3487 339.976 37.6686 340.453 40.9633C340.67 33.7184 341.422 25.4108 347.302 21.1685C350.268 19.0292 354.021 18.3761 357.632 17.7962C360.963 17.2612 364.456 16.751 367.646 17.8471C370.837 18.9431 373.554 22.2045 372.831 25.4981C374.302 24.9916 375.948 26.0163 376.675 27.3913C377.402 28.7663 377.44 30.3883 377.462 31.9433C379.03 33.051 380.815 30.8514 381.454 29.0415C382.954 24.7932 384.288 20.271 383.48 15.8388C382.671 11.4067 379.058 7.17108 374.55 7.15605C375.097 6.55541 375.389 5.76563 375.364 4.95374L371.649 4.64C372.592 4.50652 373.459 4.04944 374.102 3.34705C372.611 4.98755 360.882 0.160495 358.47 0.0743141Z" fill="#2F2E41"/>
<path d="M357.391 64.7081C357.391 64.7081 347.446 54.9685 343.867 55.5651C340.288 56.1618 335.402 64.7081 335.402 64.7081C335.402 64.7081 306.083 74.4754 307.305 84.2426C308.526 94.0099 321.964 141.625 321.964 141.625C321.964 141.625 332.959 199.008 323.186 205.113C313.413 211.217 369.607 227.089 370.829 219.763C372.05 212.438 374.493 139.184 370.829 128.195C367.164 117.207 357.391 64.7081 357.391 64.7081Z" fill="#3F3D56"/>
<path d="M400.147 84.2426H415.253C415.253 84.2426 425.801 130.637 427.023 135.521C428.245 140.404 430.688 163.602 429.466 163.602C428.244 163.602 403.812 158.718 403.812 162.381L400.147 84.2426Z" fill="#3F3D56"/>
<path d="M399.636 199.131H341.809C336.166 173.186 335.695 148.12 341.809 124.171H399.636C390.304 147.689 389.721 172.584 399.636 199.131Z" fill="#F2F2F2"/>
<path d="M318.299 167.264L335.401 174.59C335.401 174.59 368.385 179.474 368.385 166.044C368.385 152.614 335.401 159.939 335.401 159.939L324.406 156.426L318.299 167.264Z" fill="#A0616A"/>
<path d="M321.964 76.9172L307.305 80.5799L296.31 145.288C296.31 145.288 292.645 162.381 298.753 163.602C304.861 164.823 321.964 174.59 321.964 174.59C321.964 174.59 324.407 156.276 329.294 156.276L317.078 146.509L324.407 103.777L321.964 76.9172Z" fill="#3F3D56"/>
<path d="M114.651 201.939H34.4951V203.083H114.651V201.939Z" fill="#F2F2F2"/>
<path d="M57.397 191.639H56.252V202.225H57.397V191.639Z" fill="#F2F2F2"/>
<path d="M92.3218 191.639H91.1768V202.225H92.3218V191.639Z" fill="#F2F2F2"/>
<path d="M142.706 32.5635H62.5498V33.7079H142.706V32.5635Z" fill="#F2F2F2"/>
<path d="M120.949 33.4218H119.804V44.0077H120.949V33.4218Z" fill="#F2F2F2"/>
<path d="M86.024 33.4218H84.8789V44.0077H86.024V33.4218Z" fill="#F2F2F2"/>
<path d="M223.435 145.29H143.278V146.434H223.435V145.29Z" fill="#F2F2F2"/>
<path d="M201.678 146.148H200.533V156.734H201.678V146.148Z" fill="#F2F2F2"/>
<path d="M166.753 146.148H165.607V156.734H166.753V146.148Z" fill="#F2F2F2"/>
<path d="M87.1689 144.717H7.0127V145.862H87.1689V144.717Z" fill="#F2F2F2"/>
<path d="M65.4127 145.576H64.2676V156.162H65.4127V145.576Z" fill="#F2F2F2"/>
<path d="M30.4869 145.576H29.3418V156.162H30.4869V145.576Z" fill="#F2F2F2"/>
<path d="M183.356 87.496H103.2V88.6405H183.356V87.496Z" fill="#F2F2F2"/>
<path d="M126.102 77.1962H124.957V87.7821H126.102V77.1962Z" fill="#F2F2F2"/>
<path d="M161.027 77.1962H159.882V87.7821H161.027V77.1962Z" fill="#F2F2F2"/>
</g>
<defs>
<clipPath id="clip0">
<rect width="513" height="428" fill="white"/>
</clipPath>
</defs>
</svg>
